<?xml version="1.0" encoding="utf-8"?>
<!-- Generator: Adobe Illustrator 22.0.2, SVG Export Plug-In . SVG Version: 6.00 Build 0)  -->
<svg version="1.1" id="Layer_1" xmlns="http://www.w3.org/2000/svg" xmlns:xlink="http://www.w3.org/1999/xlink" x="0px" y="0px"
	 viewBox="0 0 517.3 182.5" style="enable-background:new 0 0 517.3 182.5;" xml:space="preserve">
<g>
	<g>
		<path d="M95.4,4.9c-47.5,0-86,38.5-86,86c0,47.5,38.5,86,86,86c47.5,0,86-38.5,86-86C181.4,43.4,142.9,4.9,95.4,4.9z M95.4,157.9
			c-37,0-67-30-67-67c0-37,30-67,67-67c37,0,67,30,67,67C162.4,127.9,132.4,157.9,95.4,157.9z"/>
	</g>
	<g>
		<path d="M204.4,4.9c-47.5,0-86,38.5-86,86c0,47.5,38.5,86,86,86c47.5,0,86-38.5,86-86C290.4,43.4,251.9,4.9,204.4,4.9z
			 M204.4,157.9c-37,0-67-30-67-67c0-37,30-67,67-67c37,0,67,30,67,67C271.4,127.9,241.4,157.9,204.4,157.9z"/>
	</g>
	<g>
		<path d="M313.4,4.9c-47.5,0-86,38.5-86,86c0,47.5,38.5,86,86,86c47.5,0,86-38.5,86-86C399.4,43.4,360.9,4.9,313.4,4.9z
			 M313.4,157.9c-37,0-67-30-67-67c0-37,30-67,67-67c37,0,67,30,67,67C380.4,127.9,350.4,157.9,313.4,157.9z"/>
	</g>
	<g>
		<path d="M422.4,4.9c-47.5,0-86,38.5-86,86c0,47.5,38.5,86,86,86c47.5,0,86-38.5,86-86C508.4,43.4,469.9,4.9,422.4,4.9z
			 M422.4,157.9c-37,0-67-30-67-67c0-37,30-67,67-67c37,0,67,30,67,67C489.4,127.9,459.4,157.9,422.4,157.9z"/>
	</g>
</g>
</svg>
