<svg width="52" height="47" viewBox="0 0 52 47" fill="none" xmlns="http://www.w3.org/2000/svg">
<path d="M37.2225 29.6113L52 42.9678L47.5389 47L32.7614 33.6434V31.5013L31.9249 30.7453C28.3003 33.5174 24.118 34.9035 19.378 34.9035C13.9875 34.9035 9.41019 33.2024 5.64611 29.8003C1.88204 26.3981 0 22.2819 0 17.4517C0 12.6215 1.88204 8.50536 5.64611 5.10322C9.41019 1.70107 13.9643 0 19.3083 0C24.6524 0 29.2064 1.70107 32.9705 5.10322C36.7346 8.50536 38.6166 12.6425 38.6166 17.5147C38.6166 21.7989 37.0831 25.5791 34.0161 28.8552L34.8525 29.6113H37.2225ZM19.378 29.6113C23.0956 29.6113 26.2556 28.4352 28.8579 26.0831C31.4602 23.731 32.7614 20.8749 32.7614 17.5147C32.7614 14.1546 31.4602 11.2985 28.8579 8.94638C26.2556 6.59428 23.0956 5.41823 19.378 5.41823C15.6604 5.41823 12.5004 6.59428 9.89812 8.94638C7.2958 11.2985 5.99464 14.1546 5.99464 17.5147C5.99464 20.8749 7.2958 23.731 9.89812 26.0831C12.5004 28.4352 15.6604 29.6113 19.378 29.6113Z" fill="white"/>
</svg>
