<?xml version="1.0" encoding="utf-8"?>
<!-- Generator: Adobe Illustrator 22.0.2, SVG Export Plug-In . SVG Version: 6.00 Build 0)  -->
<svg version="1.1" id="Layer_1" xmlns="http://www.w3.org/2000/svg" xmlns:xlink="http://www.w3.org/1999/xlink" x="0px" y="0px"
	 viewBox="0 0 1873 2339.7" style="enable-background:new 0 0 1873 2339.7;" xml:space="preserve">
<style type="text/css">
	.st0{fill:#E61C22;}
</style>
<title>team bg</title>
<desc>Created with Sketch.</desc>
<g>
	<path class="st0" d="M195.8,923h602.1v188h-798V0h195.9V923z"/>
	<path class="st0" d="M1107.4,190.7h-192V0h192V190.7z M1107.4,1111.2h-192V280.5h192V1111.2z"/>
	<path class="st0" d="M1868.8,429.9v177.6h-611.2V429.9H1868.8z"/>
</g>
<path class="st0" d="M505.1,1403.1h-58.8c-37.4,0-67.7,11.3-90.8,34c-23.1,22.6-34.6,51.8-34.6,87.5v36.6h184.1v186.7H320.9v593.3
	H149.8v-593.3H2.2v-186.7h147.6v-28.7c0-46.1,6.5-87.9,19.6-125.4c13.1-37.4,32.4-69.4,58.1-96c25.7-26.6,56.8-47,93.4-61.4
	c36.6-14.4,78.4-21.6,125.4-21.6h58.8V1403.1z"/>
<path class="st0" d="M608.2,1804.4c0-40,7.6-77.9,22.9-113.6c15.2-35.7,35.5-67,60.7-94c25.2-27,54-48.3,86.2-64
	c32.2-15.7,64.9-23.5,97.9-23.5h185.5c42.7,0,80.5,8.9,113.6,26.8c33.1,17.8,60.9,40.7,83.6,68.6c22.6,27.9,40,59,52.2,93.4
	c12.2,34.4,18.3,67.7,18.3,99.9v210.3H800.2v44.4c0,39.2,11.1,66.8,33.3,83c22.2,16.1,51.1,24.2,86.9,24.2h380.1v182.9H877.3
	c-36.6,0-71.2-7.2-103.8-21.6c-32.7-14.4-61.2-34.2-85.6-59.4c-24.4-25.3-43.8-55.3-58.1-90.1c-14.4-34.8-21.6-72.7-21.6-113.6
	V1804.4z M802.8,1853.8h337v-9.1c0-41.8-10.9-76.6-32.7-104.5c-21.8-27.9-50.9-41.8-87.5-41.8H917.8c-17.4,0-33.1,3.9-47,11.8
	c-13.9,7.8-25.9,18.5-35.9,32c-10,13.5-17.9,29.2-23.5,47c-5.7,17.8-8.5,36.4-8.5,55.5V1853.8z"/>
</svg>
